<?xml version="1.0" encoding="UTF-8" standalone="no"?>
<svg
   width="100%"
   viewBox="0 0 456.8 456.8"
   role="img"
   style=""
   version="1.1"
   id="svg4"
   sodipodi:docname="dogwood-v0_1_0-white-and-blackv0.0.2.svg"
   inkscape:version="1.4.3 (0d15f75042, 2025-12-25)"
   xmlns:inkscape="http://www.inkscape.org/namespaces/inkscape"
   xmlns:sodipodi="http://sodipodi.sourceforge.net/DTD/sodipodi-0.dtd"
   xmlns="http://www.w3.org/2000/svg"
   xmlns:svg="http://www.w3.org/2000/svg"
   xmlns:rdf="http://www.w3.org/1999/02/22-rdf-syntax-ns#"
   xmlns:cc="http://creativecommons.org/ns#"
   xmlns:dc="http://purl.org/dc/elements/1.1/">
  <defs
     id="defs4" />
  <sodipodi:namedview
     id="namedview4"
     pagecolor="#ffffff"
     bordercolor="#000000"
     borderopacity="0.25"
     inkscape:showpageshadow="2"
     inkscape:pageopacity="0.0"
     inkscape:pagecheckerboard="0"
     inkscape:deskcolor="#d1d1d1"
     inkscape:zoom="1.757881"
     inkscape:cx="219.58255"
     inkscape:cy="174.35765"
     inkscape:window-width="1618"
     inkscape:window-height="991"
     inkscape:window-x="26"
     inkscape:window-y="23"
     inkscape:window-maximized="0"
     inkscape:current-layer="svg4" />
  <title
     style="fill:rgb(0, 0, 0);stroke:none;color:rgb(0, 0, 0);stroke-width:1px;stroke-linecap:butt;stroke-linejoin:miter;opacity:1;font-family:&quot;Anthropic Sans&quot;, -apple-system, BlinkMacSystemFont, &quot;Segoe UI&quot;, sans-serif;font-size:16px;font-weight:400;text-anchor:start;dominant-baseline:auto"
     id="title1">Cornus florida — dogwood logo v0.0.6</title>
  <desc
     style="fill:rgb(0, 0, 0);stroke:none;color:rgb(0, 0, 0);stroke-width:1px;stroke-linecap:butt;stroke-linejoin:miter;opacity:1;font-family:&quot;Anthropic Sans&quot;, -apple-system, BlinkMacSystemFont, &quot;Segoe UI&quot;, sans-serif;font-size:16px;font-weight:400;text-anchor:start;dominant-baseline:auto"
     id="desc1">Four wide rounded bracts with shallow notched tips, symmetrical, resembling the bottom bract of a Cornus florida photograph. Central circle, unified stroke weight.</desc>
  <g
     id="g1">
    <g
       transform="matrix(0.86422929,0,0,0.86422929,51.154143,43.161305)"
       style="color:#000000;font-weight:400;font-size:16px;font-family:'Anthropic Sans', '-apple-system', BlinkMacSystemFont, 'Segoe UI', sans-serif;dominant-baseline:auto;text-anchor:start;opacity:1;fill:#000000;stroke:none;stroke-width:1px;stroke-linecap:butt;stroke-linejoin:miter"
       id="g4">
      <path
         id="path1"
         style="color:#000000;font-weight:400;font-size:16px;font-family:'Anthropic Sans', '-apple-system', BlinkMacSystemFont, 'Segoe UI', sans-serif;dominant-baseline:auto;text-anchor:start;opacity:1;fill:#ffffff;fill-opacity:1;stroke:#000000;stroke-width:15.1202;stroke-linecap:round;stroke-linejoin:round;stroke-dasharray:none;stroke-opacity:1"
         d="m 176.72906,21.367961 c -1.52735,0.06641 -3.10499,0.222507 -4.72999,0.472507 -27,4 -61.99862,37.999705 -53.99862,75.999705 6.33728,25.349117 23.96774,44.423967 42.45667,62.690777 A 55.869671,55.869671 0 0 1 200,144.13104 a 55.869671,55.869671 0 0 1 39.54288,16.39991 c 18.48893,-18.26681 36.11939,-37.34166 42.45667,-62.690777 8,-38 -26.99862,-71.999705 -53.99862,-75.999705 -13,-2 -23.00093,2.001385 -28.00093,10.001386 -4.375,-7.000001 -12.57954,-10.938737 -23.27094,-10.473893 z" />
      <path
         id="path2"
         style="color:#000000;font-weight:400;font-size:16px;font-family:'Anthropic Sans', '-apple-system', BlinkMacSystemFont, 'Segoe UI', sans-serif;dominant-baseline:auto;text-anchor:start;opacity:1;fill:#ffffff;fill-opacity:1;stroke:#000000;stroke-width:15.1202;stroke-linecap:round;stroke-linejoin:round;stroke-dasharray:none;stroke-opacity:1"
         d="m 316.1726,116.91762 c -4.57422,-0.24414 -9.26277,0.0828 -14.01277,1.08283 -25.43979,6.35994 -44.56123,24.09739 -62.88766,42.65847 a 55.869671,55.869671 0 0 1 16.11444,39.24756 55.869671,55.869671 0 0 1 -16.20303,39.34601 c 18.35388,18.59419 37.49474,36.37669 62.97625,42.74706 38,8 71.9997,-26.99862 75.9997,-53.99862 2,-13 -2.00138,-23.00093 -10.00138,-28.00093 8,-5 12.00138,-15.00093 10.00138,-28.00093 -3.5,-23.625 -29.9674,-53.37247 -61.98693,-55.08145 z" />
      <path
         id="path3"
         style="color:#000000;font-weight:400;font-size:16px;font-family:'Anthropic Sans', '-apple-system', BlinkMacSystemFont, 'Segoe UI', sans-serif;dominant-baseline:auto;text-anchor:start;opacity:1;fill:#ffffff;fill-opacity:1;stroke:#000000;stroke-width:15.1202;stroke-linecap:round;stroke-linejoin:round;stroke-dasharray:none;stroke-opacity:1"
         d="m 160.39806,239.52812 c -18.46696,18.2487 -36.06722,37.31015 -42.39761,62.63171 -8,38 26.99862,71.9997 53.99862,75.9997 13,2 23.00093,-2.00138 28.00093,-10.00138 5,8 15.00093,12.00138 28.00093,10.00138 27,-4 61.99862,-37.9997 53.99862,-75.9997 -6.30087,-25.20348 -23.76909,-44.20452 -42.14166,-62.37577 a 55.869671,55.869671 0 0 1 -39.60195,16.46389 55.869671,55.869671 0 0 1 -39.85788,-16.71983 z" />
      <path
         id="path4"
         style="color:#000000;font-weight:400;font-size:16px;font-family:'Anthropic Sans', '-apple-system', BlinkMacSystemFont, 'Segoe UI', sans-serif;dominant-baseline:auto;text-anchor:start;opacity:1;fill:#ffffff;fill-opacity:1;stroke:#000000;stroke-width:15.1202;stroke-linecap:round;stroke-linejoin:round;stroke-dasharray:none;stroke-opacity:1"
         d="m 83.827404,116.91762 c -32.019531,1.70898 -58.486936,31.45645 -61.986936,55.08145 -2,13 2.001385,23.00093 10.001386,28.00093 -8.000001,5 -12.001386,15.00093 -10.001386,28.00093 4,27 37.999705,61.99862 75.999705,53.99862 25.303417,-6.32585 44.355537,-23.90575 62.592337,-42.35823 a 55.869671,55.869671 0 0 1 -17.13328,-40.26148 55.869671,55.869671 0 0 1 16.50819,-39.65117 c -18.04872,-18.2221 -36.95109,-35.47418 -61.967247,-41.72822 -4.75,-1 -9.43855,-1.32697 -14.012769,-1.08283 z" />
    </g>
  </g>
  <metadata
     id="metadata4">
    <rdf:RDF>
      <cc:Work
         rdf:about="">
        <dc:title>Cornus florida — dogwood logo v0.0.6</dc:title>
      </cc:Work>
    </rdf:RDF>
  </metadata>
  <circle
     style="fill:#4a1a1a;stroke:#ffffff;stroke-width:10.3068;fill-opacity:1"
     id="path5"
     cx="222.73822"
     cy="215.61842"
     r="52.18235" />
</svg>
